<?xml version="1.0" encoding="utf-8"?>
<!-- Generator: Adobe Illustrator 19.2.1, SVG Export Plug-In . SVG Version: 6.00 Build 0)  -->
<svg version="1.0" id="Calque_1" xmlns="http://www.w3.org/2000/svg" xmlns:xlink="http://www.w3.org/1999/xlink" x="0px" y="0px"
	 viewBox="0 0 200 120" enable-background="new 0 0 200 120" xml:space="preserve">
<rect x="15.7" y="24" fill="#72787A" width="14.8" height="75.4"/>
<path fill="#72787A" d="M173.7,24v45.2c-2.5-2.8-43-47.7-43-47.7h-2.3v78h13.7V54.8c2.5,2.7,42.9,47.1,42.9,47.1h2.4V24H173.7z"/>
<path fill="#72787A" d="M97.3,77.6l-0.8,0v7.8c-4.9,1.9-8.7,2.6-13.2,2.6c-16.1,0-26.5-10.8-26.5-27.5c0-15.9,9.8-25.7,25.6-25.7
	c8.9,0,16.3,3.3,21.9,9.8l1.2,1.4l1.1-17.2l-0.3-0.2c-2.4-1.7-3.5-2.3-6.3-3.5c-5.9-2.6-10.9-3.6-17.3-3.6c-11.5,0-21.8,4-29.2,11.2
	C46,39.9,42,50.1,42,61.5c0,23.4,16.7,40.5,39.7,40.5c5.8,0,12.3-1,17.9-2.8c3.9-1.2,6.1-2.1,11.1-4.6l0.4-0.2V75.3l-1,0.4
	C106.1,77.1,101.8,77.7,97.3,77.6z"/>
<path fill="#95C11F" d="M94.4,53.4c0,0-0.1,0-0.1,0c-9.4-2.4-18.9-1.1-26,3.6c3.9,7.5,11.6,13.3,20.9,15.7c0,0,0.1,0,0.1,0
	c9.4,2.4,18.9,1.1,26-3.6C111.4,61.6,103.8,55.8,94.4,53.4z"/>
</svg>
